<svg xmlns="http://www.w3.org/2000/svg" width="49" height="65" viewBox="0 0 49 65" fill="none"><path d="M47.0118 58.7977L45.7428 52.4249C45.6419 51.9169 45.1489 51.5871 44.6404 51.6877C44.1324 51.7886 43.8024 52.2821 43.9033 52.7901L45.0309 58.4537H38.8277V52.7465C38.8277 52.2285 38.408 51.8087 37.89 51.8087C37.372 51.8087 36.9522 52.2285 36.9522 52.7465C36.9522 54.6518 36.9522 60.9813 36.9522 62.999H26.4155L29.2916 59.7884C29.8102 59.2095 29.9922 58.3881 29.7666 57.6446L26.761 47.7358L27.3327 46.9143C28.241 47.0998 29.1351 46.6958 29.5808 46.0505L32.8687 41.3163C40.2208 43.9137 38.9282 43.4739 39.9268 43.7693C40.4466 43.9676 40.804 44.1908 41.1975 44.4816L41.1973 44.4817C42.6526 45.6813 42.6951 46.7802 43.0486 48.4978C43.1496 49.0058 43.6432 49.3359 44.1512 49.2344C44.6592 49.1333 44.9889 48.6396 44.8879 48.1318C44.6244 46.8099 44.5581 46.3317 44.3019 45.6557C43.7461 44.1858 42.6344 43.075 41.6987 42.5551C40.8568 42.0468 40.3317 41.9338 39.8105 41.7793C39.7611 41.762 38.944 41.4738 32.9735 39.369L30.4617 37.2403V35.9281C30.4983 35.892 35.7694 33.1043 36.4516 26.6227C39.2775 26.7537 41.2645 24.0774 40.1251 21.695V18.8678C41.5376 18.8272 42.6749 17.6682 42.6749 16.2461C42.6749 14.7984 41.4971 13.6205 40.0494 13.6205H39.3342C39.3254 13.6006 38.211 6.29181 31.2326 2.83484C30.7576 1.02911 28.6071 0.280993 27.117 1.40761C25.244 1.04524 23.2591 1.02399 21.3072 1.38711C19.8372 0.305243 17.7539 1.02036 17.2394 2.75647C17.2228 2.76484 17.1801 2.78497 17.1381 2.80634L17.1968 2.92184C17.1956 2.92709 17.1939 2.93209 17.1928 2.93734L17.1257 2.81234C17.0003 2.90109 13.4715 4.4387 10.996 8.46166C9.47265 10.923 9.16615 12.9826 8.97878 13.6207H8.40241C6.95467 13.6207 5.77681 14.7986 5.77681 16.2463C5.77681 17.6941 6.95467 18.8719 8.40241 18.8719H8.54128V21.1132C6.76067 23.4859 8.69828 26.7697 11.8611 26.623C12.2702 30.5407 14.5967 34.143 18.2013 36.1304V37.326L15.6193 39.3981C8.6524 41.8513 7.79891 42.1297 7.73441 42.1501C7.74566 42.1467 7.77079 42.1401 7.72079 42.1622C7.72066 42.1623 7.72054 42.1623 7.72041 42.1625C6.60717 42.6293 5.46606 43.5588 4.76619 44.7946C4.06957 46.0162 4.22707 45.8813 1.65472 58.7978C0.940229 59.2234 0.458984 60.0015 0.458984 60.8919V62.4365C0.458984 63.7809 1.55272 64.8746 2.89709 64.8746C4.2932 64.8746 12.607 64.8746 13.891 64.8746C14.409 64.8746 14.8287 64.4549 14.8287 63.9369C14.8287 63.4189 14.409 62.9991 13.891 62.9991H11.7144C11.7144 60.5188 11.7144 54.5281 11.7144 52.7466C11.7144 52.2286 11.2946 51.8089 10.7766 51.8089C10.2586 51.8089 9.83889 52.2286 9.83889 52.7466V58.4538H3.63545C6.06943 46.2448 5.88518 46.6595 6.3983 45.7187C6.62192 45.3239 6.9083 44.9648 7.28467 44.6358C7.30642 44.6177 7.45754 44.4919 7.44517 44.5022V44.5023C8.28516 43.8596 8.76765 43.7678 9.4049 43.5733C9.88227 43.4369 15.5827 41.3955 15.713 41.3493C19.1257 46.2628 18.9751 46.0483 19.0034 46.0859C19.5599 46.8132 20.4595 47.0912 21.279 46.903L21.886 47.7453L18.8831 57.6452C18.6577 58.3887 18.8397 59.2102 19.3582 59.789L22.2343 62.9995H18.2668C17.7488 62.9995 17.3291 63.4193 17.3291 63.9372C17.3291 64.4552 17.7488 64.875 18.2668 64.875C19.4697 64.875 44.5473 64.875 45.7697 64.875C47.114 64.875 48.2078 63.7812 48.2078 62.4369V60.8923C48.2075 60.0014 47.7263 59.2233 47.0118 58.7977ZM39.8102 41.7795C39.8101 41.7795 39.8101 41.7795 39.81 41.7793C39.7822 41.7696 39.7699 41.7652 39.7665 41.764C39.7721 41.766 39.8012 41.7762 39.8102 41.7795ZM9.83852 60.3292V62.999H2.89671C2.59171 62.999 2.33409 62.7413 2.33409 62.4364V60.8918C2.33409 60.581 2.60171 60.3292 2.89671 60.3292H9.83852ZM31.2464 40.3642L28.0563 44.9578C27.967 45.0654 27.8522 45.0832 27.7905 45.0838C27.6031 45.0849 27.6976 45.1944 25.59 42.8127C25.7461 42.6607 29.1222 39.3741 29.5672 38.9409L31.2464 40.3642ZM28.586 36.8379V37.279C27.2527 38.5769 25.6384 40.1485 24.2886 41.4625L20.0764 37.379V36.9663C22.373 37.7651 24.1394 37.6384 24.2451 37.6554C24.2583 37.6553 24.3178 37.6549 24.3053 37.655C26.3692 37.6299 27.7021 37.1236 27.8455 37.0955L27.8596 37.0909V37.091C27.9573 37.0585 28.2066 36.9834 28.586 36.8379ZM25.7931 45.8434L25.242 46.6353H23.3979L22.801 45.8072C22.9149 45.6815 24.108 44.3662 24.2871 44.1688C24.4093 44.3047 25.6529 45.6874 25.7931 45.8434ZM36.5236 24.7489V21.4752C37.5329 21.4212 38.573 22.1058 38.573 23.1111C38.5729 24.0871 37.5946 24.8056 36.5236 24.7489ZM36.5235 19.5966V18.8719H38.2494V19.9227C37.7314 19.6999 37.1309 19.5796 36.5235 19.5966ZM31.3212 5.04045C34.3467 6.87743 36.5928 9.9714 37.422 13.6207H31.3212V5.04045ZM26.098 3.13747C26.0464 3.50809 26.0806 3.46346 26.0699 6.12256C26.0699 6.64056 26.4896 7.0603 27.0076 7.0603C27.5256 7.0603 27.9453 6.64056 27.9453 6.12256V3.50084C27.9453 3.08709 28.2818 2.75059 28.6956 2.75059C29.1012 2.75059 29.4318 3.07434 29.4446 3.47684C29.4465 3.58284 29.4456 11.528 29.4458 13.6206H27.9453V10.4986C27.9453 9.98065 27.5256 9.5609 27.0076 9.5609C26.4896 9.5609 26.0699 9.98065 26.0699 10.4986V13.6206H22.3816C22.3585 3.86221 22.418 3.55321 22.3534 3.11809C22.7375 3.06722 24.8356 2.95759 26.098 3.13747ZM19.0092 3.43446C19.0781 2.65484 20.3479 2.49947 20.4949 3.37634C20.5124 3.48034 20.5043 10.5921 20.5062 13.6207H19.0058C19.0068 10.7461 19.0089 3.43909 19.0092 3.43446ZM17.1303 4.95695V13.6207H10.8906C11.837 9.64628 14.2152 6.68693 17.1303 4.95695ZM11.7894 24.7489C9.72427 24.8579 8.91715 22.456 10.8078 21.6454C11.1055 21.5185 11.4358 21.4563 11.7894 21.4753V24.7489ZM10.4166 19.7909V18.8719H11.7892V19.5966C11.3466 19.5831 10.8695 19.6448 10.4166 19.7909ZM8.40241 16.9965C7.98866 16.9965 7.65216 16.6598 7.65216 16.2462C7.65216 15.8325 7.98866 15.496 8.40241 15.496C12.0234 15.496 36.3491 15.496 40.0492 15.496C40.463 15.496 40.7995 15.8325 40.7995 16.2462C40.7995 16.66 40.463 16.9965 40.0492 16.9965C36.7639 16.9965 12.0469 16.9965 8.40241 16.9965ZM14.7542 29.9505C13.3301 27.0205 13.6647 25.3166 13.6647 18.8719H34.6481C34.6209 26.2624 34.6929 26.1162 34.4246 27.444C32.7387 36.4134 19.8148 39.4244 14.7542 29.9505ZM21.0107 44.9901C20.8742 45.1206 20.6367 45.1197 20.5025 44.9579L17.3481 40.4156L19.0806 39.0252C19.9967 39.9135 22.0676 41.9212 22.9863 42.8117C20.8194 45.2012 21.0257 44.9758 21.0107 44.9901ZM20.7549 58.5373C20.4939 58.2458 20.6557 58.4939 23.6134 48.5107H25.0364L27.972 58.1888V58.1889C28.0817 58.5507 27.9216 58.4092 24.3248 62.522L20.7549 58.5373ZM46.332 62.4364C46.332 62.7414 46.0743 62.999 45.7694 62.999H38.8277V60.3292C46.2385 60.3338 45.7562 60.3195 45.8648 60.3392C46.1302 60.3883 46.332 60.6229 46.332 60.8918V62.4364Z" fill="black"></path></svg>