<svg xmlns="http://www.w3.org/2000/svg" width="48" height="65" viewBox="0 0 48 65" fill="none"><path d="M44.9727 14.3819C46.1821 14.3819 47.166 13.398 47.166 12.1886V8.42875C47.166 7.21937 46.1821 6.2355 44.9727 6.2355H38.2263C37.7072 6.2355 37.2863 6.65637 37.2863 7.1755C37.2863 7.69462 37.7071 8.1155 38.2263 8.1155H44.9727C45.1456 8.1155 45.2861 8.25612 45.2861 8.42887V12.1887C45.2861 12.3615 45.1456 12.5021 44.9727 12.5021H2.36122C2.18834 12.5021 2.04784 12.3615 2.04784 12.1887V8.42875C2.04784 8.256 2.18834 8.11537 2.36122 8.11537H34.1306C34.6497 8.11537 35.0706 7.6945 35.0706 7.17537C35.0706 6.65625 34.6498 6.23537 34.1306 6.23537H22.822V3.695C22.822 2.14012 21.557 0.875122 20.0021 0.875122H11.1671C9.61222 0.875122 8.34722 2.14012 8.34722 3.695V6.23562H2.36122C1.15184 6.23562 0.167969 7.2195 0.167969 8.42887V12.1887C0.167969 13.3981 1.15184 14.382 2.36122 14.382H3.92784V21.6624C3.92784 22.1815 4.34859 22.6024 4.86784 22.6024C5.38697 22.6024 5.80784 22.1815 5.80784 21.6624V14.382H41.5262V30.835H31.0927C28.5922 26.0997 24.6023 21.7852 24.354 21.5287C23.9406 21.1017 23.4382 21.131 22.9802 21.5287C22.7365 21.7896 18.742 26.0997 16.2415 30.835H5.80797V25.758C5.80797 25.2389 5.38722 24.818 4.86797 24.818C4.34884 24.818 3.92797 25.2389 3.92797 25.758V30.835H2.36122C1.15184 30.835 0.167969 31.9595 0.167969 33.3415V36.4747C0.167969 37.8569 1.15184 38.9812 2.36122 38.9812H3.92784V56.7289H2.36122C1.15184 56.7289 0.167969 57.7127 0.167969 58.9221V62.682C0.167969 63.8914 1.15184 64.8752 2.36122 64.8752H44.9726C46.182 64.8752 47.1658 63.8914 47.1658 62.682V58.9221C47.1658 57.7127 46.182 56.7289 44.9726 56.7289H43.406V51.5741C43.406 51.055 42.9852 50.6341 42.466 50.6341C41.9467 50.6341 41.526 51.055 41.526 51.5741V56.7289H5.80784V38.9812H14.4005C15.1906 43.3807 19.0436 46.7307 23.6671 46.7307C28.2906 46.7307 32.1436 43.3809 32.9337 38.9812H41.5263V47.4772C41.5263 47.9964 41.9471 48.4172 42.4663 48.4172C42.9856 48.4172 43.4063 47.9964 43.4063 47.4772V38.9812H44.973C46.1823 38.9812 47.1662 37.8567 47.1662 36.4747V33.3415C47.1662 31.9594 46.1823 30.835 44.973 30.835H43.4063V14.3819H44.9727ZM10.2272 3.695C10.2272 3.17662 10.6488 2.755 11.1672 2.755H20.0022C20.5206 2.755 20.9422 3.17662 20.9422 3.695V6.23562H10.2273V3.695H10.2272ZM44.9727 58.6087C45.1456 58.6087 45.2861 58.7494 45.2861 58.9221V62.682C45.2861 62.8547 45.1456 62.9954 44.9727 62.9954H2.36122C2.18834 62.9954 2.04784 62.8547 2.04784 62.682V58.9221C2.04784 58.7494 2.18834 58.6087 2.36122 58.6087H44.9727ZM2.04797 36.4746V33.3414C2.04797 32.9587 2.25372 32.7147 2.36134 32.7147H15.3456C14.7111 34.2196 14.293 35.7191 14.2537 37.1012H2.36122C2.27034 37.1012 2.04797 36.8817 2.04797 36.4746ZM23.667 44.8507C19.5107 44.8507 16.1293 41.4694 16.1293 37.313C16.1293 32.6626 21.6902 25.8551 23.6672 23.582C25.6446 25.8541 31.2046 32.6579 31.2046 37.313C31.2046 41.4694 27.8232 44.8507 23.667 44.8507ZM45.286 33.3415V36.4747C45.286 36.8819 45.0636 37.1014 44.9726 37.1014H33.0802C33.041 35.7192 32.6228 34.2197 31.9883 32.7149H44.9726C45.0802 32.7149 45.286 32.9589 45.286 33.3415Z" fill="black" ></path></svg>