<svg xmlns="http://www.w3.org/2000/svg" id="Capa_1" height="512" viewBox="0 0 512 512" width="512"><g><path d="m392.951 380.638c4.143 0 7.5-3.357 7.5-7.5v-36.338c0-4.143-3.357-7.5-7.5-7.5h-257.22c-4.143 0-7.5 3.357-7.5 7.5v36.338c0 4.143 3.357 7.5 7.5 7.5zm-93.492-15h-27.617v-21.338h27.617zm15-21.338h27.618v21.338h-27.618zm-57.617 21.338h-27.618v-21.338h27.618zm-42.618 0h-27.617v-21.338h27.617zm171.227 0h-28.374v-21.338h28.374zm-242.22-21.338h28.375v21.338h-28.375z"></path><path d="m504.5 463.64h-21.612v-285.018h3.152c4.143 0 7.5-3.357 7.5-7.5s-3.357-7.5-7.5-7.5h-3.152v-26.544h3.152c4.143 0 7.5-3.357 7.5-7.5s-3.357-7.5-7.5-7.5c-12.322 0-81.25 0-95.244 0-4.143 0-7.5 3.357-7.5 7.5s3.357 7.5 7.5 7.5h3.152v26.544h-3.152c-4.143 0-7.5 3.357-7.5 7.5s3.357 7.5 7.5 7.5h3.152v32.654l-51.621-51.621c-4.721-4.723-10.999-7.323-17.678-7.323h-32.967v-59.909h4.355c4.143 0 7.5-3.357 7.5-7.5s-3.357-7.5-7.5-7.5h-4.355v-29.063h4.355c4.143 0 7.5-3.357 7.5-7.5s-3.357-7.5-7.5-7.5c-18.956 0-120.634 0-141.743 0-4.143 0-7.5 3.357-7.5 7.5s3.357 7.5 7.5 7.5h4.356v29.062h-4.356c-4.143 0-7.5 3.357-7.5 7.5s3.357 7.5 7.5 7.5h4.356v33.651c0 4.143 3.357 7.5 7.5 7.5s7.5-3.357 7.5-7.5v-33.65h103.031v203.183h-103.03v-139.545c0-4.143-3.357-7.5-7.5-7.5s-7.5 3.357-7.5 7.5v139.545h-28.75v-33.909h3.613c4.143 0 7.5-3.357 7.5-7.5s-3.357-7.5-7.5-7.5h-3.613v-2.552c0-4.143-3.357-7.5-7.5-7.5s-7.5 3.357-7.5 7.5v2.552h-3.612c-4.143 0-7.5 3.357-7.5 7.5s3.357 7.5 7.5 7.5h3.612v33.909h-16.216c-7.452 0-13.516 6.063-13.516 13.516v49.111h-14.819c-15.364 0-29.859 6.778-39.768 18.598-2.661 3.174-2.245 7.904.929 10.565 3.174 2.662 7.904 2.245 10.565-.929 7.052-8.41 17.356-13.234 28.273-13.234h14.819v20h-14.818c-9.312 0-16.889 7.576-16.889 16.889v53.519h-20v-53.352c0-4.143-3.357-7.5-7.5-7.5s-7.5 3.357-7.5 7.5v53.352h-10.961c-4.143 0-7.5 3.357-7.5 7.5s3.357 7.5 7.5 7.5h497c4.143 0 7.5-3.357 7.5-7.5s-3.357-7.501-7.5-7.501zm-330.849-386.217v-29.063h103.031v29.062h-103.031zm235.297 59.655h58.939v26.544h-58.939zm-84.299 30.254c2.671 0 5.182 1.04 7.07 2.93l62.229 62.229v28.283l-71.244-71.245c-1.407-1.406-3.314-2.196-5.304-2.196h-25.718v-20h32.967zm-256.188 242.789c0-1.041.848-1.889 1.889-1.889h14.819v55.407h-16.708zm31.708-99.516h227.501c4.143 0 7.5-3.357 7.5-7.5s-3.357-7.5-7.5-7.5h-35.987v-93.273h22.611l79.654 79.655v13.618h-36.291c-4.143 0-7.5 3.357-7.5 7.5s3.357 7.5 7.5 7.5h70.857v153.035h-101.366v-52.062c0-4.143-3.357-7.5-7.5-7.5h-110.614c-4.143 0-7.5 3.357-7.5 7.5v52.062h-101.365c0-6.594 0-146.346 0-153.035zm116.365 153.035v-44.562h95.614v44.562zm226.981 0v-154.519c0-7.452-6.063-13.516-13.516-13.516h-21.051c0-23.325 0-92.714 0-116.983h58.939v285.018z" fill="black"></path></g></svg>